<svg xmlns="http://www.w3.org/2000/svg" width="192" height="26" fill="none" style="width:26px;overflow:hidden"><path fill="#000" fill-rule="evenodd" d="M10.891.014a.1.1 0 0 0-.05-.014.202.202 0 0 0-.042.005l-.031.012-.735 23.47-.002.05a1.117 1.117 0 0 1-.724.98 1.11 1.11 0 0 1-.38.072H8.92l-.129-.002a8.997 8.997 0 0 1-3.479-.795c-.006 0-.011-.004-.017-.006l-.007-.002a3.662 3.662 0 0 1-2.22-3.365c-.04-1.151.323-2.32.613-3.253.065-.217.129-.419.178-.596.467-1.58.688-3.223.654-4.87-.057-2.336-1.655-4.332-3.98-4.984a.544.544 0 0 0-.154-.025c-.12 0-.206.075-.265.165a.73.73 0 0 0-.106.287c-.049.354.161.41.274.442 1.291.362 2.236 1.071 2.801 2.117 1.203 2.215.339 5.194-.29 7.367l-.096.325-.05.167c-.344 1.213-.466 2.168-.37 3.109.05.495.16.987.33 1.513.815 2.503 3.914 3.164 6.377 3.284.037 0 .074.003.11.008l.06.008h18.425a1.029 1.029 0 0 0 .698-.33 1.09 1.09 0 0 0 .299-.764s-.43-10.099-.705-19.103C27.821 3.694 29.96.161 29.96.161c-.008-.129-.202-.137-.21-.137a.181.181 0 0 0-.088.012.2.2 0 0 0-.073.052c-1.206.576-2.167 1.176-2.884 1.798-.523.453-1.422 1.467-2.697 3.042a1.109 1.109 0 0 1-.896.474H15.58l-.056-.002a1.089 1.089 0 0 1-.808-.432L10.906.024l-.015-.01Zm1.95 8.685a2.854 2.854 0 0 1 4.383.43 2.84 2.84 0 0 1 .48 1.579 2.853 2.853 0 0 1-4.432 2.363 2.846 2.846 0 0 1-1.211-2.917 2.84 2.84 0 0 1 .78-1.455Zm8.953 0a2.85 2.85 0 0 1 3.105-.615 2.847 2.847 0 0 1 1.759 2.625 2.844 2.844 0 0 1-2.196 2.765 2.858 2.858 0 0 1-2.236-.402 2.84 2.84 0 0 1-.432-4.373Zm-4.607 2.003c0-.728-.592-1.32-1.322-1.32-.73 0-1.323.592-1.323 1.32a1.32 1.32 0 0 0 1.323 1.319 1.323 1.323 0 0 0 1.322-1.319Zm8.954 0c0-.728-.592-1.32-1.323-1.32-.73 0-1.323.592-1.323 1.32 0 .506.286.944.705 1.165a1.32 1.32 0 0 0 1.941-1.165Zm12.788 14.313c-.01.202-.016.358-.016.47h-7.521c.167-1.535.305-3.126.415-4.773.056-.844.104-1.702.145-2.575.121-2.578.182-5.385.182-8.422h7.128v1.635c.695-.748 1.404-1.28 2.126-1.597.72-.318 1.581-.477 2.58-.477 1.17 0 2.156.182 2.959.544.801.364 1.394.904 1.778 1.62.716-.787 1.432-1.344 2.148-1.672.717-.329 1.595-.492 2.634-.492 1.796 0 3.107.406 3.935 1.218.827.813 1.24 2.1 1.24 3.866 0 .666-.063 2.233-.188 4.7-.06 1.159-.107 2.246-.143 3.261-.041 1.146-.066 2.2-.077 3.163h-7.46c.16-2.14.292-4.008.392-5.607.102-1.599.152-2.61.152-3.034 0-.767-.076-1.29-.227-1.567a.745.745 0 0 0-.36-.336 1.06 1.06 0 0 0-.427-.08c-1.11 0-1.74 3.511-1.892 10.534v.09h-7.158c.161-2.068.29-3.927.386-5.577.096-1.65.144-2.736.144-3.262 0-.655-.079-1.117-.235-1.384-.156-.267-.421-.4-.794-.4-1.09 0-1.705 3.384-1.846 10.154ZM69.755 4.963l-.212 4.313H62.19l.226-4.313h7.34Zm-.673 12.764a180.435 180.435 0 0 0-.159 7.757h-7.748c.242-2.3.426-4.686.552-7.158.126-2.473.19-5.055.19-7.749h7.657c-.222 2.31-.386 4.694-.492 7.15Zm10.253.206-.273 7.551h-7.279c.273-1.958.502-4.715.69-8.27.186-3.557.304-7.636.355-12.236l7.279-.015c-.273 2.432-.525 6.618-.757 12.56l-.015.41Zm7.537-1.409 4.282 8.96H83.3a191.005 191.005 0 0 0-1.801-4.6 166.404 166.404 0 0 0-1.846-4.36c.746-1.25 1.432-2.43 2.058-3.54.625-1.11 1.22-2.2 1.785-3.27h7.78l-4.404 6.81Zm20.815 7.106c-1.73 1.549-4.118 2.323-7.165 2.323-2.946 0-5.219-.7-6.818-2.096-1.6-1.397-2.398-3.377-2.398-5.94 0-2.693.875-4.817 2.625-6.371 1.75-1.554 4.154-2.33 7.211-2.33 2.896 0 5.143.698 6.742 2.096 1.599 1.397 2.399 3.362 2.399 5.894 0 2.734-.865 4.875-2.596 6.424Zm-8.588-3.799c.354.44.898.66 1.635.66.786 0 1.369-.254 1.747-.758.379-.505.568-1.286.568-2.345 0-.899-.164-1.567-.492-2.006-.328-.439-.834-.658-1.52-.658h-.152c-.787 0-1.37.253-1.748.756-.378.505-.567 1.277-.567 2.316 0 .918.176 1.597.529 2.035Zm20.612 5.184c-.01.202-.015.358-.015.47h-7.521c.252-2.322.438-4.771.559-7.348.121-2.578.182-5.385.182-8.422h7.128v1.635c.475-.51.955-.92 1.442-1.229.227-.144.455-.267.684-.368.722-.318 1.582-.477 2.58-.477.851 0 1.604.096 2.26.287.247.073.48.159.699.257.802.364 1.395.904 1.778 1.62.717-.787 1.433-1.344 2.149-1.672.716-.329 1.594-.492 2.633-.492 1.796 0 3.108.406 3.935 1.218.827.813 1.241 2.1 1.241 3.866 0 .666-.063 2.233-.189 4.7a163.48 163.48 0 0 0-.219 6.424h-7.461c.161-2.14.292-4.008.393-5.607.101-1.599.152-2.61.152-3.034 0-.767-.076-1.29-.228-1.567a.745.745 0 0 0-.318-.316c-.13-.066-.286-.1-.468-.1-1.11 0-1.741 3.511-1.892 10.534v.09h-7.158c.161-2.068.29-3.927.386-5.577.095-1.65.143-2.736.143-3.262 0-.501-.046-.891-.137-1.165a1.222 1.222 0 0 0-.097-.22c-.157-.266-.421-.4-.795-.4-1.089 0-1.705 3.385-1.846 10.155Zm30.827-20.052-.212 4.313h-7.355l.227-4.313h7.34Zm-.674 12.764a180.252 180.252 0 0 0-.159 7.757h-7.748c.242-2.3.426-4.686.553-7.158a156.187 156.187 0 0 0 .189-7.75h7.657c-.222 2.312-.386 4.695-.492 7.151Zm10.253.206-.272 7.551h-7.279c.272-1.958.502-4.715.688-8.27.187-3.557.305-7.636.356-12.236l7.279-.015c-.272 2.432-.524 6.618-.757 12.56l-.015.41Zm7.537-1.409 4.283 8.96h-7.855a188.109 188.109 0 0 0-1.801-4.6 164.713 164.713 0 0 0-1.846-4.36 179.978 179.978 0 0 0 2.058-3.54c.626-1.11 1.221-2.2 1.786-3.27h7.779l-4.404 6.81Zm20.816 7.106c-1.73 1.549-4.119 2.323-7.166 2.323-2.946 0-5.218-.7-6.817-2.096-1.599-1.397-2.399-3.377-2.399-5.94 0-2.693.875-4.817 2.626-6.371 1.75-1.554 4.154-2.33 7.211-2.33 2.895 0 5.143.698 6.742 2.096 1.599 1.397 2.398 3.362 2.398 5.894 0 2.734-.865 4.875-2.595 6.424Zm-8.111-3.398c.31.172.696.258 1.157.258.787 0 1.37-.253 1.748-.757.378-.505.568-1.286.568-2.345 0-.446-.041-.834-.121-1.166a2.302 2.302 0 0 0-.371-.84c-.328-.439-.835-.658-1.521-.658h-.152c-.457 0-.846.086-1.165.256-.23.122-.424.29-.582.5a2.564 2.564 0 0 0-.417.922 5.652 5.652 0 0 0-.151 1.394c0 .918.177 1.597.53 2.035.132.164.291.298.477.401Z" class="mantine-1e6wg96" clip-rule="evenodd"/></svg>